<svg xmlns="http://www.w3.org/2000/svg" id="Layer_1" viewBox="0 0 175.41 175.41">
  <defs><style>@media (prefers-color-scheme: dark){path {fill: white !important;}}</style></defs>
  <path fill="#9b54e6" d="M87.71 48.72c.87 0 1.73.03 2.58.09L89.2.01 87.71 0l-1.49.01-1.09 48.8c.85-.06 1.71-.09 2.58-.09Z"/>
  <path fill="#5324b3" d="M79.03 49.7c.85-.19 1.69-.35 2.53-.49L69.65 1.88l-1.46.32-1.45.35 9.8 47.82a39.8 39.8 0 0 1 2.5-.66Zm-8.24 2.88c.78-.38 1.57-.72 2.36-1.04L51 8.05l-1.35.64-1.34.66L68.5 53.79a38 38 0 0 1 2.29-1.2Z"/>
  <path fill="#5971f2" d="M63.4 57.23c.68-.54 1.37-1.05 2.07-1.54L34.2 18.22l-1.18.92-1.16.94 29.58 38.83c.63-.58 1.28-1.14 1.96-1.68Zm-6.17 6.17c.54-.68 1.1-1.33 1.68-1.96L20.08 31.86l-.94 1.16-.92 1.18 37.47 31.27c.49-.7 1-1.39 1.54-2.07Z"/>
  <path fill="#40b5ff" d="M52.59 70.79c.38-.78.78-1.54 1.2-2.29L9.35 48.31l-.66 1.34L8.06 51l43.49 22.15c.32-.79.66-1.58 1.04-2.36Zm-2.89 8.24c.19-.85.41-1.68.66-2.5l-47.82-9.8-.35 1.45-.32 1.46L49.2 81.56c.14-.84.3-1.69.49-2.53Z"/>
  <path fill="#ffd42b" d="M96.38 125.71c-.85.19-1.69.35-2.53.49l11.92 47.33 1.46-.32 1.45-.35-9.8-47.82c-.82.24-1.65.47-2.5.66Zm8.24-2.89c-.78.38-1.57.72-2.36 1.04l22.15 43.49 1.35-.64 1.34-.66-20.19-44.44a38 38 0 0 1-2.29 1.2Z"/>
  <path fill="#ffb700" d="M112.01 118.18c-.68.54-1.37 1.05-2.07 1.54l31.27 37.48 1.18-.92 1.16-.94-29.57-38.83c-.63.58-1.28 1.14-1.96 1.68Zm6.17-6.17c-.54.68-1.1 1.33-1.68 1.96l38.83 29.58.94-1.16.92-1.18-37.47-31.28c-.49.7-1 1.39-1.54 2.07Z"/>
  <path fill="#ff7c00" d="M122.82 104.62c-.38.78-.78 1.54-1.2 2.29l44.44 20.2.66-1.34.63-1.35-43.49-22.15c-.32.79-.66 1.58-1.04 2.36Zm2.89-8.24c-.19.85-.41 1.68-.66 2.5l47.82 9.8.35-1.45c.12-.48.22-.97.32-1.46l-47.33-11.92c-.14.84-.3 1.69-.49 2.53Z"/>
  <path fill="#f20c51" d="M126.69 87.71c0 .87-.03 1.73-.09 2.58l48.8-1.08.01-1.49-.01-1.49-48.8-1.09c.06.85.09 1.71.09 2.58Zm-.98-8.68c.19.85.35 1.69.49 2.53l47.33-11.92-.32-1.46-.35-1.45-47.82 9.8c.24.82.47 1.65.66 2.5Z"/>
  <path fill="#ff369c" d="M122.83 70.79c.38.78.72 1.57 1.04 2.36L167.37 51l-.64-1.35-.66-1.34-44.44 20.19a38 38 0 0 1 1.2 2.29Zm-4.65-7.39c.54.68 1.05 1.37 1.54 2.07L157.2 34.2l-.92-1.18-.94-1.16-38.83 29.57c.58.63 1.14 1.28 1.68 1.96Z"/>
  <path fill="#ff7cff" d="M112.01 57.23c.68.54 1.33 1.1 1.96 1.68l29.58-38.83-1.16-.94-1.18-.92-31.28 37.47c.7.49 1.39 1 2.07 1.54Zm-7.39-4.64c.78.38 1.54.78 2.29 1.2l20.2-44.44-1.34-.66-1.35-.63-22.15 43.49c.79.32 1.58.66 2.36 1.04Z"/>
  <path fill="#9b54e6" d="M96.38 49.7c.85.19 1.68.41 2.5.66l9.8-47.81-1.45-.35c-.48-.12-.97-.22-1.46-.32L93.85 49.21c.84.14 1.69.3 2.53.49Z"/>
  <path fill="#1a2544" d="M87.71 126.69a38.98 38.98 0 0 1-38.86-42.08H.06a87.7 87.7 0 0 0 90.75 90.74v-48.79c-1.02.08-2.06.12-3.1.12Z"/>
</svg>
