<svg xmlns="http://www.w3.org/2000/svg" fill-rule="evenodd" stroke-linejoin="round" stroke-miterlimit="2" clip-rule="evenodd" viewBox="0 0 32 32"><path fill="#ffffff" d="M26.56 26.56v-2.23h-10v-1.1h10V21h-10v-1.11h10v-2.22h-10v-1.11h10c0-1.23-1-2.23-2.22-2.23H7.66c-1.22 0-2.22 1-2.22 2.23v11.1c0 1.23 1 2.23 2.22 2.23h16.68c1.22 0 2.21-1 2.22-2.22h-10v-1.11h10zM7.66 13.22V9.33a8.33 8.33 0 0 1 16.67 0v3.9c1.85 0 3.34 1.5 3.34 3.34v11.09c0 1.85-1.5 3.34-3.35 3.34H7.68a3.34 3.34 0 0 1-3.35-3.34v-11.1c0-1.85 1.5-3.33 3.34-3.34zm1.12 0v-3.9a7.22 7.22 0 0 1 14.44 0v3.9h-1.1V9.34a6.12 6.12 0 1 0-12.23 0v3.88H8.78zm2.22 0V9.33a5 5 0 1 1 10 0v3.9H11z"/><path fill-rule="nonzero" fill="#ffffff" d="M9.94 25a.47.47 0 0 1-.32-.13l-2.48-2.45a.45.45 0 0 1 0-.65.47.47 0 0 1 .65 0l2.14 2.1 4.26-4.71c.17-.2.46-.2.65-.04.2.17.21.46.04.65l-4.59 5.08c-.08.1-.2.15-.33.15h-.02z"/></svg>
